<?xml version="1.0" encoding="UTF-8"?>
<svg id="Layer_1" xmlns="http://www.w3.org/2000/svg" version="1.1" viewBox="0 0 493.6 129.5">
  <!-- Generator: Adobe Illustrator 29.3.1, SVG Export Plug-In . SVG Version: 2.1.0 Build 151)  -->
  <defs>
    <style>
      .st0 {
        fill: #fff;
        stroke: #101233;
        stroke-miterlimit: 10;
        stroke-width: 2px;
      }

      .st1 {
        fill: #101233;
      }

      .st2 {
        isolation: isolate;
      }
    </style>
  </defs>
  <rect class="st0" x="8.4" y="2.6" width="476.8" height="124.3" rx="62.1" ry="62.1"/>
  <path class="st1" d="M152.3,76.1v3.3l-32.5.3h-1.3c-2.9,0-5.6-.7-8-2-3.6-2.1-6.4-5.6-7.6-10-.9-3.5-.5-7.1.8-10.2h0c2.4-5.8,8.1-9.9,14.7-10,1.1,0,2.2,0,3.2.3h0c.4,0,.8.2,1.2.3.2,0,.5,0,.7.2.2,0,.3,0,.5.2,1.7.6,3.3,1.6,4.7,2.8h0c3.5,2.9,5.8,7.2,5.8,12.2s-2.6,10.2-6.6,13.2h13.4c2.2-4,3.4-8.5,3.4-13.3,0-12.5-9-22.9-20.8-25.4h0c-.4,0-.8,0-1.2-.2-3.5-.6-7.1-.5-10.7.5-14.1,3.6-22.6,17.9-19,32,1,4,3,7.6,5.5,10.6h0c2,2.2,4.3,4.1,6.9,5.6.2,0,.3.2.5.2s.3,0,.4.2c.2,0,.4.2.6.3h0c3.5,1.7,7.5,2.6,11.6,2.6h0l33.8-.4v3.3l10-8.4-10.2-8.2s.2,0,.2,0Z"/>
  <g>
    <g>
      <path class="st1" d="M223.6,66.4c-3.6,0-6.8-.8-9.5-2.3-2.7-1.6-4.8-3.7-6.2-6.5-1.5-2.8-2.2-5.9-2.2-9.5s.7-6.7,2.2-9.4,3.5-4.8,6.1-6.4c2.6-1.5,5.6-2.3,8.9-2.3s6.4.8,9,2.3,4.6,3.6,6.1,6.4c1.5,2.7,2.2,5.9,2.2,9.4s-.4,4.9-1.3,7c-.8,2.2-2.1,4-3.8,5.5s-3.8,2.6-6.4,3.1l-5.3,2.6h.2ZM223,62.3c2.4,0,4.5-.6,6.3-1.8s3.2-2.9,4.2-5,1.5-4.6,1.5-7.4-.5-5-1.5-7.1c-1-2-2.4-3.6-4.2-4.8-1.8-1.1-3.9-1.7-6.3-1.7s-4.5.6-6.3,1.7c-1.8,1.1-3.2,2.7-4.2,4.7s-1.5,4.4-1.5,7.1.5,5.3,1.5,7.4c1,2.1,2.4,3.8,4.2,5s3.9,1.8,6.2,1.8h.1ZM223.6,66.4l-.6-3.5,18.7-1.2v4.3h-5.2c-1.5,0-2.8,0-4.1.2-1.3,0-2.6,0-4,.2s-3,0-4.9,0c0,0,.1,0,.1,0Z"/>
      <path class="st1" d="M251.3,66l-7.7-25h5.3l5.2,20.1h-.7l6.3-20.1h4.4l6.3,20.1h-.7l5.2-20.1h5l-7.7,25h-4.5l-6.3-19.8h.7l-6.4,19.8h-4.5.1Z"/>
      <path class="st1" d="M284.1,36v-5.7h5.6v5.7h-5.6ZM284.3,66v-25h5.1v25h-5.1Z"/>
      <path class="st1" d="M306.9,66.4c-2.4,0-4.5-.6-6.4-1.7s-3.3-2.7-4.4-4.6-1.6-4.2-1.6-6.7.5-4.8,1.6-6.7,2.5-3.5,4.4-4.6,4-1.7,6.3-1.7,3.8.4,5.3,1.1c1.6.8,2.9,1.8,3.9,3.1s1.7,2.9,2,4.8h-4.8c-.3-1.5-1-2.7-2.1-3.5-1.1-.9-2.5-1.3-4.1-1.3s-2.7.4-3.8,1.1c-1.1.7-1.9,1.7-2.5,3s-.9,2.9-.9,4.7.3,3.3.9,4.7,1.4,2.4,2.5,3.1,2.4,1.1,3.8,1.1,3-.4,4.1-1.3,1.9-2,2.2-3.5h4.8c-.3,1.8-1,3.4-2,4.7s-2.3,2.4-3.9,3.1-3.3,1.1-5.3,1.1h0Z"/>
      <path class="st1" d="M323.2,66V30.7h15c2.6,0,4.7.4,6.5,1.3s3.2,2.1,4.1,3.6,1.4,3.4,1.4,5.6-.5,4.1-1.4,5.7c-1,1.6-2.4,2.8-4.2,3.7-1.8.9-4,1.3-6.5,1.3h-11v-4.3h10.7c2.3,0,4.1-.6,5.3-1.7,1.2-1.1,1.8-2.7,1.8-4.7s-.6-3.6-1.8-4.7c-1.2-1.1-3-1.6-5.3-1.6h-9.5v31.1h-5.2.1Z"/>
      <path class="st1" d="M361,66.4c-2.6,0-4.6-.6-6.1-1.9s-2.3-3-2.3-5.1.8-4,2.4-5.3,3.9-2.2,6.8-2.6l8.2-1.3v3.6l-7.5,1.2c-1.7.3-2.9.7-3.8,1.3-.8.6-1.3,1.5-1.3,2.7s.4,2,1.2,2.6,1.9.9,3.4.9,3.6-.5,4.9-1.4,1.9-2.1,1.9-3.6l.6,3.6c-.6,1.7-1.6,3.1-3.1,4s-3.3,1.4-5.5,1.4h.2q0,0,0-.1ZM369.6,66c-.2-.6-.3-1.3-.3-2.1v-2.7h-.2v-11.9c0-1.6-.4-2.8-1.2-3.6-.8-.8-2.1-1.2-3.8-1.2s-3,.3-4,1-1.6,1.6-1.7,2.8h-4.9c.2-2.4,1.3-4.2,3.2-5.6,1.9-1.4,4.4-2.1,7.6-2.1s5.7.8,7.4,2.3c1.6,1.5,2.5,3.8,2.5,6.7v11.7c0,.8,0,1.5.1,2.3,0,.8.2,1.6.4,2.5h-5.1Z"/>
      <path class="st1" d="M387.3,66l-10.7-25h5.5l9.1,22.5-3.9,2.5ZM381.5,76l6-13.8,1-1.6,7.6-19.7h5.3l-14.7,35.1h-5.3.1Z"/>
    </g>
    <g class="st2">
      <g class="st2">
        <path class="st1" d="M244.9,95.3c-.9,0-1.6-.2-2.4-.5-.7-.3-1.4-.8-1.9-1.3-.5-.6-.9-1.2-1.2-2s-.4-1.6-.4-2.5.1-1.8.4-2.5c.3-.8.7-1.4,1.2-2,.5-.6,1.2-1,1.9-1.3s1.5-.5,2.4-.5,1.8.2,2.6.6c.8.4,1.4.9,1.9,1.6.5.7.8,1.5.9,2.4h-1.8c-.1-1-.5-1.7-1.2-2.3s-1.4-.8-2.4-.8-1.5.2-2.1.6c-.6.4-1.1.9-1.4,1.7s-.5,1.6-.5,2.5.2,1.8.5,2.5c.3.7.8,1.3,1.4,1.7.6.4,1.3.6,2.1.6s1.8-.3,2.4-.8c.6-.5,1-1.3,1.2-2.3h1.8c-.1.9-.4,1.7-.9,2.4s-1.1,1.2-1.9,1.6-1.6.6-2.6.6Z"/>
        <path class="st1" d="M252.2,95.1v-12.3h1.8v12.3h-1.8ZM258.4,95.1v-5.6c0-.6-.2-1.1-.5-1.4-.3-.3-.7-.4-1.3-.4s-1,.1-1.4.3c-.4.2-.7.5-.9.9-.2.4-.3.9-.3,1.4l-.2-2.1c.3-.6.7-1.2,1.3-1.5s1.3-.6,2.1-.6,1.7.3,2.2.8.8,1.2.8,2.1v6h-1.8Z"/>
      </g>
      <g class="st2">
        <path class="st1" d="M266.3,95.3c-.9,0-1.6-.2-2.3-.6-.7-.4-1.2-.9-1.6-1.6s-.6-1.5-.6-2.4.2-1.7.6-2.4c.4-.7.9-1.2,1.6-1.6.7-.4,1.4-.6,2.3-.6s1.6.2,2.2.5c.6.4,1.1.9,1.4,1.5.3.6.5,1.4.5,2.3s0,.3,0,.4c0,.1,0,.2,0,.4h-7.3v-1.3h6.1l-.4.5c0-.9-.2-1.6-.6-2.1-.4-.5-1-.7-1.8-.7s-1.4.3-1.9.8c-.5.6-.7,1.3-.7,2.3s.2,1.8.7,2.3c.5.6,1.1.8,2,.8s1-.1,1.3-.3.7-.5.8-.9h1.7c-.3.8-.8,1.5-1.4,1.9-.7.5-1.5.7-2.4.7Z"/>
      </g>
      <g class="st2">
        <path class="st1" d="M275.9,95.3c-.8,0-1.6-.2-2.2-.6-.6-.4-1.2-.9-1.5-1.6-.4-.7-.6-1.5-.6-2.3s.2-1.7.6-2.3c.4-.7.9-1.2,1.5-1.6s1.4-.6,2.2-.6,1.3.1,1.9.4c.5.3,1,.6,1.3,1.1.4.5.6,1,.7,1.7h-1.7c-.1-.5-.4-.9-.7-1.2s-.9-.5-1.4-.5-.9.1-1.3.4c-.4.3-.7.6-.9,1.1-.2.5-.3,1-.3,1.6s.1,1.2.3,1.6c.2.5.5.8.9,1.1.4.3.8.4,1.3.4s1-.2,1.4-.5c.4-.3.6-.7.8-1.2h1.7c-.1.6-.4,1.2-.7,1.6-.4.5-.8.8-1.4,1.1-.5.3-1.2.4-1.8.4Z"/>
      </g>
      <g class="st2">
        <path class="st1" d="M281.6,95.1v-12.5h1.8v12.5h-1.8ZM287.2,95.1l-4.3-4.5,4.2-4.2h2.2l-4.7,4.6v-.8c0,0,4.9,4.9,4.9,4.9h-2.3Z"/>
      </g>
      <g class="st2">
        <path class="st1" d="M294.1,95.3c-.9,0-1.7-.2-2.3-.6-.7-.4-1.2-.9-1.6-1.6s-.6-1.5-.6-2.4.2-1.7.6-2.3.9-1.2,1.6-1.6c.7-.4,1.4-.6,2.3-.6s1.7.2,2.4.6c.7.4,1.2.9,1.6,1.6s.6,1.5.6,2.3-.2,1.7-.6,2.4-.9,1.2-1.6,1.6c-.7.4-1.5.6-2.4.6ZM294.1,93.8c.5,0,1-.1,1.4-.4.4-.3.7-.6.9-1.1.2-.5.3-1,.3-1.6,0-.9-.2-1.7-.7-2.2-.5-.5-1.1-.8-1.9-.8s-1.4.3-1.9.8c-.5.5-.7,1.3-.7,2.2s.1,1.2.3,1.6c.2.5.5.8.9,1.1.4.3.9.4,1.4.4Z"/>
      </g>
      <g class="st2">
        <path class="st1" d="M303.3,95.3c-.6,0-1.1-.1-1.5-.4-.4-.2-.8-.6-1-1-.2-.4-.4-.9-.4-1.5v-6h1.8v5.6c0,.6.1,1.1.4,1.3s.7.4,1.3.4.9-.1,1.3-.3c.4-.2.7-.5.9-.9.2-.4.3-.9.3-1.4l.2,2.1c-.3.6-.7,1.1-1.3,1.5-.6.4-1.3.6-2,.6ZM306.4,95.1v-2.1h0v-6.7h1.8v8.7h-1.7Z"/>
      </g>
      <g class="st2">
        <path class="st1" d="M309.6,87.8v-1.4h6v1.4h-6ZM314.3,95.3c-1,0-1.8-.2-2.2-.7-.5-.5-.7-1.2-.7-2.1v-8.1l1.8-.7v8.8c0,.5.1.8.4,1s.6.3,1.2.3.4,0,.5,0c.2,0,.3,0,.4-.1v1.4c-.1,0-.3.1-.5.1-.2,0-.5,0-.8,0Z"/>
      </g>
      <g class="st2">
        <path class="st1" d="M320.6,95.1v-12.3h1.8v12.3h-1.8ZM321.5,84.3v-1.5h7.2v1.5h-7.2ZM321.5,90v-1.5h6.8v1.5h-6.8Z"/>
      </g>
      <g class="st2">
        <path class="st1" d="M332.4,95.3c-.9,0-1.6-.2-2.1-.7-.5-.4-.8-1-.8-1.8s.3-1.4.8-1.8c.6-.5,1.3-.8,2.4-.9l2.9-.5v1.2l-2.6.4c-.6,0-1,.2-1.3.5-.3.2-.4.5-.4.9s.1.7.4.9.7.3,1.2.3,1.2-.2,1.7-.5c.5-.3.7-.7.7-1.2l.2,1.3c-.2.6-.6,1.1-1.1,1.4-.5.3-1.2.5-1.9.5ZM335.4,95.1c0-.2,0-.5-.1-.7,0-.3,0-.6,0-1h0v-4.2c0-.6-.1-1-.4-1.3-.3-.3-.7-.4-1.3-.4s-1,.1-1.4.3c-.3.2-.5.6-.6,1h-1.7c0-.8.5-1.5,1.1-2,.7-.5,1.5-.7,2.6-.7s2,.3,2.6.8c.6.5.9,1.3.9,2.3v4.1c0,.3,0,.5,0,.8s0,.6.2.9h-1.7Z"/>
      </g>
      <g class="st2">
        <path class="st1" d="M342.4,95.3c-1.1,0-2-.2-2.7-.8-.7-.5-1.1-1.2-1.1-2.1h1.6c0,.5.3.9.7,1.2s.9.4,1.6.4,1-.1,1.3-.3.5-.5.5-.9,0-.5-.3-.7c-.2-.2-.5-.3-1-.5l-1.4-.3c-.9-.2-1.5-.5-2-1-.4-.4-.6-1-.6-1.6s.3-1.4.9-1.9,1.4-.7,2.4-.7,1.8.2,2.5.7c.6.5,1,1.1,1.1,1.9h-1.6c0-.4-.3-.7-.6-.9-.3-.2-.8-.3-1.3-.3s-.9,0-1.2.3c-.3.2-.4.4-.4.8s.1.5.3.7c.2.2.6.3,1.1.5l1.4.4c.8.2,1.5.5,1.9,1,.4.5.6,1,.6,1.7s-.3,1.4-.9,1.8c-.6.4-1.5.7-2.6.7Z"/>
      </g>
      <g class="st2">
        <path class="st1" d="M346.5,87.8v-1.4h6v1.4h-6ZM351.2,95.3c-1,0-1.8-.2-2.2-.7-.5-.5-.7-1.2-.7-2.1v-8.1l1.8-.7v8.8c0,.5.1.8.4,1,.2.2.6.3,1.2.3s.4,0,.5,0c.2,0,.3,0,.4-.1v1.4c-.1,0-.3.1-.5.1s-.5,0-.8,0Z"/>
      </g>
      <g class="st2">
        <path class="st1" d="M357.7,95.3c-.9,0-1.6-.2-2.3-.6-.7-.4-1.2-.9-1.6-1.6s-.6-1.5-.6-2.4.2-1.7.6-2.4c.4-.7.9-1.2,1.6-1.6.7-.4,1.4-.6,2.3-.6s1.6.2,2.2.5c.6.4,1.1.9,1.4,1.5.3.6.5,1.4.5,2.3s0,.3,0,.4c0,.1,0,.2,0,.4h-7.3v-1.3h6.1l-.4.5c0-.9-.2-1.6-.6-2.1-.4-.5-1-.7-1.8-.7s-1.5.3-1.9.8-.7,1.3-.7,2.3.2,1.8.7,2.3,1.1.8,2,.8,1-.1,1.3-.3c.4-.2.7-.5.8-.9h1.7c-.3.8-.8,1.5-1.4,1.9-.7.5-1.5.7-2.4.7Z"/>
        <path class="st1" d="M363.6,95.1v-8.7h1.7v2.2h0v6.5h-1.8ZM365.4,90.6l-.2-2.1c.2-.7.6-1.3,1.1-1.7.5-.4,1.1-.6,1.8-.6s.4,0,.5,0v1.7c0,0-.1,0-.2,0s-.2,0-.4,0c-.9,0-1.5.2-1.9.7-.4.4-.6,1.1-.6,2Z"/>
      </g>
    </g>
  </g>
</svg>